<mxfile host="app.diagrams.net" modified="2024-02-07T15:11:58.183Z" agent="Mozilla/5.0 (Macintosh; Intel Mac OS X 10_15_7) AppleWebKit/537.36 (KHTML, like Gecko) Chrome/121.0.0.0 Safari/537.36" etag="xtqjy2g2lo0051at8MIQ" version="21.6.8" type="github">
  <diagram name="Seite-1" id="AW9bfPagiRShUK080vDb">
    <mxGraphModel dx="1468" dy="811" grid="1" gridSize="10" guides="1" tooltips="1" connect="1" arrows="1" fold="1" page="1" pageScale="1" pageWidth="827" pageHeight="1169" math="0" shadow="0">
      <root>
        <mxCell id="0" />
        <mxCell id="1" parent="0" />
        <mxCell id="twcTMI3ufBbgHVpbK2ii-1" value="order" style="rounded=1;whiteSpace=wrap;html=1;fontSize=50;" vertex="1" parent="1">
          <mxGeometry x="60" y="120" width="220" height="190" as="geometry" />
        </mxCell>
        <mxCell id="twcTMI3ufBbgHVpbK2ii-9" value="receipts" style="rounded=1;whiteSpace=wrap;html=1;fontSize=50;" vertex="1" parent="1">
          <mxGeometry x="560" y="120" width="220" height="190" as="geometry" />
        </mxCell>
        <mxCell id="twcTMI3ufBbgHVpbK2ii-19" style="edgeStyle=orthogonalEdgeStyle;orthogonalLoop=1;jettySize=auto;html=1;exitX=0;exitY=0.75;exitDx=0;exitDy=0;entryX=1;entryY=0.75;entryDx=0;entryDy=0;curved=1;" edge="1" parent="1">
          <mxGeometry relative="1" as="geometry">
            <mxPoint x="1060" y="240" as="sourcePoint" />
            <mxPoint x="780" y="240" as="targetPoint" />
            <Array as="points">
              <mxPoint x="1060" y="297.5" />
              <mxPoint x="780" y="297.5" />
            </Array>
          </mxGeometry>
        </mxCell>
        <mxCell id="twcTMI3ufBbgHVpbK2ii-13" value="products" style="rounded=1;whiteSpace=wrap;html=1;fontSize=50;" vertex="1" parent="1">
          <mxGeometry x="1060" y="120" width="220" height="190" as="geometry" />
        </mxCell>
        <mxCell id="twcTMI3ufBbgHVpbK2ii-21" style="edgeStyle=orthogonalEdgeStyle;orthogonalLoop=1;jettySize=auto;html=1;exitX=0;exitY=0.75;exitDx=0;exitDy=0;entryX=1;entryY=0.75;entryDx=0;entryDy=0;curved=1;" edge="1" parent="1">
          <mxGeometry relative="1" as="geometry">
            <mxPoint x="560" y="252.45" as="sourcePoint" />
            <mxPoint x="280" y="252.45" as="targetPoint" />
            <Array as="points">
              <mxPoint x="560" y="309.95" />
              <mxPoint x="280" y="309.95" />
            </Array>
          </mxGeometry>
        </mxCell>
        <mxCell id="twcTMI3ufBbgHVpbK2ii-22" style="edgeStyle=orthogonalEdgeStyle;orthogonalLoop=1;jettySize=auto;html=1;exitX=0;exitY=0.25;exitDx=0;exitDy=0;entryX=1;entryY=0.25;entryDx=0;entryDy=0;curved=1;startArrow=classic;startFill=1;endArrow=none;endFill=0;" edge="1" parent="1">
          <mxGeometry relative="1" as="geometry">
            <mxPoint x="560" y="197.5" as="sourcePoint" />
            <mxPoint x="280" y="197.5" as="targetPoint" />
            <Array as="points">
              <mxPoint x="560" y="140" />
              <mxPoint x="280" y="140" />
            </Array>
          </mxGeometry>
        </mxCell>
        <mxCell id="twcTMI3ufBbgHVpbK2ii-20" style="edgeStyle=orthogonalEdgeStyle;orthogonalLoop=1;jettySize=auto;html=1;exitX=0;exitY=0.25;exitDx=0;exitDy=0;entryX=1;entryY=0.25;entryDx=0;entryDy=0;curved=1;endArrow=none;endFill=0;startArrow=classic;startFill=1;" edge="1" parent="1">
          <mxGeometry relative="1" as="geometry">
            <mxPoint x="1060" y="197.5" as="sourcePoint" />
            <mxPoint x="780" y="197.5" as="targetPoint" />
            <Array as="points">
              <mxPoint x="1060" y="140" />
              <mxPoint x="780" y="140" />
            </Array>
          </mxGeometry>
        </mxCell>
        <mxCell id="twcTMI3ufBbgHVpbK2ii-16" value="&lt;p style=&quot;&quot;&gt;&lt;font face=&quot;Helvetica&quot;&gt;{&lt;br&gt;&lt;/font&gt;&lt;font face=&quot;Helvetica&quot;&gt;&lt;span style=&quot;background-color: initial;&quot;&gt;&amp;nbsp; &amp;nbsp; &quot;ids&quot;: [&quot;S1&quot;, &quot;S2&quot;,&quot;S3&quot;]&lt;/span&gt;&lt;/font&gt;&lt;font face=&quot;Helvetica&quot;&gt;&lt;span style=&quot;background-color: initial;&quot;&gt;&lt;br&gt;&lt;/span&gt;&lt;/font&gt;&lt;font face=&quot;Helvetica&quot;&gt;}&lt;/font&gt;&lt;/p&gt;" style="text;html=1;align=left;verticalAlign=top;resizable=0;points=[];autosize=1;strokeColor=none;fillColor=none;labelPosition=center;verticalLabelPosition=middle;horizontal=1;" vertex="1" parent="1">
          <mxGeometry x="850" y="70" width="150" height="80" as="geometry" />
        </mxCell>
        <mxCell id="twcTMI3ufBbgHVpbK2ii-7" value="&lt;p style=&quot;&quot;&gt;&lt;font face=&quot;Helvetica&quot;&gt;{&lt;br&gt;&lt;/font&gt;&lt;font face=&quot;Helvetica&quot;&gt;&lt;span style=&quot;background-color: initial;&quot;&gt;&amp;nbsp; &amp;nbsp; &quot;productIds&quot;: [&quot;S1&quot;, &quot;S2&quot;,&quot;S3&quot;],&lt;br&gt;&lt;/span&gt;&lt;/font&gt;&lt;font face=&quot;Helvetica&quot;&gt;&lt;span style=&quot;background-color: initial;&quot;&gt;&amp;nbsp; &amp;nbsp; &quot;discountCode&quot;: &quot;TEN&quot;&lt;br&gt;&lt;/span&gt;&lt;/font&gt;&lt;font face=&quot;Helvetica&quot;&gt;}&lt;/font&gt;&lt;/p&gt;" style="text;html=1;align=left;verticalAlign=top;resizable=0;points=[];autosize=1;strokeColor=none;fillColor=none;labelPosition=center;verticalLabelPosition=middle;horizontal=1;" vertex="1" parent="1">
          <mxGeometry x="330" y="50" width="200" height="100" as="geometry" />
        </mxCell>
        <mxCell id="twcTMI3ufBbgHVpbK2ii-23" value="&lt;p style=&quot;&quot;&gt;&lt;span style=&quot;background-color: initial;&quot;&gt;[&lt;/span&gt;&lt;/p&gt;&lt;p style=&quot;&quot;&gt;&lt;span style=&quot;background-color: initial;&quot;&gt;&amp;nbsp; &amp;nbsp; {&quot;id&quot;: &quot;S1&quot;, &quot;name&quot;: &quot;Book&quot;, &quot;price&quot;: 9.99},&lt;/span&gt;&lt;/p&gt;&amp;nbsp; &amp;nbsp; {&quot;id&quot;: &quot;S1&quot;, &quot;name&quot;: &quot;Pen&quot;, &quot;price&quot;: 5.50},&lt;p style=&quot;&quot;&gt;&amp;nbsp; &amp;nbsp; {&quot;id&quot;: &quot;S1&quot;, &quot;name&quot;: &quot;Pencil&quot;, &quot;price&quot;: 4.49}&lt;span style=&quot;background-color: initial;&quot;&gt;&lt;br&gt;&lt;/span&gt;&lt;/p&gt;&lt;p style=&quot;&quot;&gt;&lt;font face=&quot;Helvetica&quot;&gt;&lt;span style=&quot;background-color: initial;&quot;&gt;]&lt;/span&gt;&lt;/font&gt;&lt;font face=&quot;Helvetica&quot;&gt;&lt;span style=&quot;background-color: initial;&quot;&gt;&lt;br&gt;&lt;/span&gt;&lt;/font&gt;&lt;br&gt;&lt;/p&gt;" style="text;html=1;align=left;verticalAlign=top;resizable=0;points=[];autosize=1;strokeColor=none;fillColor=none;labelPosition=center;verticalLabelPosition=middle;horizontal=1;" vertex="1" parent="1">
          <mxGeometry x="800" y="290" width="260" height="170" as="geometry" />
        </mxCell>
        <mxCell id="twcTMI3ufBbgHVpbK2ii-24" value="&lt;p style=&quot;&quot;&gt;&lt;span style=&quot;background-color: initial;&quot;&gt;&lt;br&gt;&lt;/span&gt;&lt;/p&gt;&lt;p style=&quot;&quot;&gt;&lt;span style=&quot;background-color: initial;&quot;&gt;{&lt;/span&gt;&lt;/p&gt;&lt;p style=&quot;&quot;&gt;&lt;span style=&quot;background-color: initial;&quot;&gt;&amp;nbsp; &amp;nbsp; &quot;products&quot;:&amp;nbsp;&lt;/span&gt;[&lt;/p&gt;&lt;p style=&quot;border-color: var(--border-color);&quot;&gt;&lt;span style=&quot;border-color: var(--border-color); background-color: initial;&quot;&gt;&amp;nbsp; &amp;nbsp; &amp;nbsp; &amp;nbsp; {&quot;id&quot;: &quot;S1&quot;, &quot;name&quot;: &quot;Book&quot;, &quot;price&quot;: 9.99},&lt;/span&gt;&lt;/p&gt;&amp;nbsp; &amp;nbsp; &amp;nbsp; &amp;nbsp; {&quot;id&quot;: &quot;S1&quot;, &quot;name&quot;: &quot;Pen&quot;, &quot;price&quot;: 5.50},&lt;p style=&quot;border-color: var(--border-color);&quot;&gt;&amp;nbsp; &amp;nbsp; &amp;nbsp; &amp;nbsp; {&quot;id&quot;: &quot;S1&quot;, &quot;name&quot;: &quot;Pencil&quot;, &quot;price&quot;: 4.49}&lt;span style=&quot;border-color: var(--border-color); background-color: initial;&quot;&gt;&lt;br style=&quot;border-color: var(--border-color);&quot;&gt;&lt;/span&gt;&lt;/p&gt;&lt;p style=&quot;border-color: var(--border-color);&quot;&gt;&lt;font style=&quot;border-color: var(--border-color);&quot; face=&quot;Helvetica&quot;&gt;&amp;nbsp; &amp;nbsp; ],&lt;/font&gt;&lt;/p&gt;&lt;p style=&quot;border-color: var(--border-color);&quot;&gt;&lt;font style=&quot;border-color: var(--border-color);&quot; face=&quot;Helvetica&quot;&gt;&amp;nbsp; &amp;nbsp; &quot;total&quot;: {&quot;value&quot;:&amp;nbsp; 17.98}&amp;nbsp;&lt;/font&gt;&lt;/p&gt;&lt;p style=&quot;&quot;&gt;&lt;span style=&quot;background-color: initial;&quot;&gt;}&lt;/span&gt;&lt;/p&gt;&lt;p style=&quot;&quot;&gt;&lt;br&gt;&lt;/p&gt;&lt;p style=&quot;&quot;&gt;&lt;br&gt;&lt;/p&gt;" style="text;html=1;align=left;verticalAlign=top;resizable=0;points=[];autosize=1;strokeColor=none;fillColor=none;labelPosition=center;verticalLabelPosition=middle;horizontal=1;" vertex="1" parent="1">
          <mxGeometry x="300" y="290" width="270" height="320" as="geometry" />
        </mxCell>
        <mxCell id="twcTMI3ufBbgHVpbK2ii-25" value="POST /receipts" style="rounded=0;whiteSpace=wrap;html=1;" vertex="1" parent="1">
          <mxGeometry x="354" y="190" width="120" height="60" as="geometry" />
        </mxCell>
        <mxCell id="twcTMI3ufBbgHVpbK2ii-26" value="POST /products" style="rounded=0;whiteSpace=wrap;html=1;" vertex="1" parent="1">
          <mxGeometry x="860" y="190" width="120" height="60" as="geometry" />
        </mxCell>
      </root>
    </mxGraphModel>
  </diagram>
</mxfile>
